<?xml version="1.0" encoding="UTF-8" standalone="no"?>
<svg
   viewBox="0 0 90 90"
   version="1.1"
   id="svg12"
   sodipodi:docname="whiterook.svg"
   width="90"
   height="90"
   inkscape:export-filename="whiterook.svg"
   inkscape:export-xdpi="96"
   inkscape:export-ydpi="96"
   xmlns:inkscape="http://www.inkscape.org/namespaces/inkscape"
   xmlns:sodipodi="http://sodipodi.sourceforge.net/DTD/sodipodi-0.dtd"
   xmlns="http://www.w3.org/2000/svg"
   xmlns:svg="http://www.w3.org/2000/svg">
  <defs
     id="defs16" />
  <sodipodi:namedview
     id="namedview14"
     pagecolor="#ffffff"
     bordercolor="#000000"
     borderopacity="0.25"
     inkscape:showpageshadow="2"
     inkscape:pageopacity="0.0"
     inkscape:pagecheckerboard="0"
     inkscape:deskcolor="#d1d1d1"
     showgrid="false" />
  <path
     d="m 30.888973,35.240736 v 22.851 h 29.435 v -22.851 h -29.435 m -15.234,50.091 -2.4529,-2.4529 v -8.9079 l 13.168,-13.297 v -25.82 l -11.361,-9.9407 v -11.748 l 3.7439,-3.6148001 h 11.619 l 2.1947,2.1947001 v 3.3566 h 3.7439 v -3.3566 l 2.1947,-2.1947001 h 14.201 l 2.1947,2.1947001 v 3.3566 h 3.6148 v -3.3566 l 2.3238,-2.1947001 h 11.619 l 3.7439,3.6148001 v 11.748 l -11.361,9.9407 v 25.82 l 13.168,13.297 v 8.9079 l -2.4529,2.4529 h -59.902 m 2.0656,-10.199 v 5.0349 h 55.771 v -5.0349 h -55.771 m 12.652,-12.781 -8.5206,8.2624 h 47.509 l -8.5206,-8.2624 h -30.468 m 10.328,-47.38 v 3.3566 l -1.9365,1.8074 h -8.3915 l -1.9365,-1.8074 v -3.6148 h -7.2296 l -1.6783,1.8074 v 7.2296 l 8.7788,7.1005 h 34.599 l 8.7788,-7.1005 v -7.2296 l -1.6783,-1.8074 h -7.2296 v 3.6148 l -1.9365,1.8074 h -8.3915 l -1.9365,-1.8074 v -3.3566 h -9.8116"
     id="path10" />
</svg>
